<svg width="259" height="43" viewBox="0 0 259 43" fill="none" xmlns="http://www.w3.org/2000/svg">
<path d="M4.69176 8.81818H12.5284L16.4915 25.0284H16.7983L26.1307 8.81818H33.9673L29.6207 35H23.4588L26.1307 18.9176H25.9134L16.9901 34.8338H13.0653L9.43466 18.8281H9.21733L6.5071 35H0.34517L4.69176 8.81818ZM33.5678 35L36.8406 15.3636H43.092L39.8192 35H33.5678ZM40.4073 13.0625C39.521 13.0625 38.8008 12.7685 38.2468 12.1804C37.6928 11.5923 37.4755 10.8892 37.5948 10.071C37.7141 9.24432 38.1317 8.54119 38.8477 7.96165C39.5636 7.3821 40.3604 7.09233 41.2383 7.09233C42.1246 7.09233 42.8363 7.3821 43.3732 7.96165C43.9187 8.54119 44.1317 9.24432 44.0124 10.071C43.9102 10.8892 43.5011 11.5923 42.7852 12.1804C42.0778 12.7685 41.2852 13.0625 40.4073 13.0625ZM63.1662 21.3594L57.5284 21.5128C57.5369 21.0952 57.4432 20.7287 57.2472 20.4134C57.0511 20.0895 56.7741 19.8381 56.4162 19.6591C56.0582 19.4801 55.6321 19.3906 55.1378 19.3906C54.3366 19.3906 53.6165 19.5696 52.9773 19.9276C52.3466 20.2855 51.9929 20.75 51.9162 21.321C51.8565 21.6278 51.9418 21.8963 52.1719 22.1264C52.402 22.348 52.9134 22.544 53.706 22.7145L57.3878 23.4304C59.2798 23.8054 60.652 24.4574 61.5043 25.3864C62.3651 26.3068 62.6719 27.5256 62.4247 29.0426C62.2031 30.3381 61.6321 31.4588 60.7116 32.4048C59.7997 33.3509 58.6364 34.0838 57.2216 34.6037C55.8153 35.1151 54.2599 35.3707 52.5554 35.3707C49.6747 35.3707 47.5014 34.7912 46.0355 33.6321C44.5781 32.4645 43.8963 30.9176 43.9901 28.9915L50.0753 28.8381C50.1009 29.5625 50.3438 30.108 50.804 30.4744C51.2727 30.8324 51.9077 31.0199 52.7088 31.0369C53.5866 31.054 54.3452 30.8707 54.9844 30.4872C55.6236 30.1037 55.9815 29.6307 56.0582 29.0682C56.1094 28.7017 55.9858 28.4162 55.6875 28.2116C55.3977 28.0071 54.8565 27.8239 54.0639 27.6619L50.7401 27.0099C48.831 26.6435 47.4503 25.9531 46.598 24.9389C45.7543 23.9162 45.4645 22.6122 45.7287 21.027C45.9503 19.7656 46.4702 18.696 47.2884 17.8182C48.1151 16.9318 49.1932 16.2585 50.5227 15.7983C51.8608 15.3381 53.3864 15.108 55.0994 15.108C57.8438 15.108 59.9148 15.6662 61.3125 16.7827C62.7188 17.8906 63.3366 19.4162 63.1662 21.3594ZM83.8732 21.3594L78.2354 21.5128C78.244 21.0952 78.1502 20.7287 77.9542 20.4134C77.7582 20.0895 77.4812 19.8381 77.1232 19.6591C76.7653 19.4801 76.3391 19.3906 75.8448 19.3906C75.0437 19.3906 74.3235 19.5696 73.6843 19.9276C73.0536 20.2855 72.6999 20.75 72.6232 21.321C72.5636 21.6278 72.6488 21.8963 72.8789 22.1264C73.109 22.348 73.6204 22.544 74.413 22.7145L78.0948 23.4304C79.9869 23.8054 81.359 24.4574 82.2113 25.3864C83.0721 26.3068 83.3789 27.5256 83.1317 29.0426C82.9102 30.3381 82.3391 31.4588 81.4187 32.4048C80.5067 33.3509 79.3434 34.0838 77.9286 34.6037C76.5224 35.1151 74.967 35.3707 73.2624 35.3707C70.3817 35.3707 68.2085 34.7912 66.7425 33.6321C65.2852 32.4645 64.6033 30.9176 64.6971 28.9915L70.7823 28.8381C70.8079 29.5625 71.0508 30.108 71.511 30.4744C71.9798 30.8324 72.6147 31.0199 73.4158 31.0369C74.2937 31.054 75.0522 30.8707 75.6914 30.4872C76.3306 30.1037 76.6886 29.6307 76.7653 29.0682C76.8164 28.7017 76.6928 28.4162 76.3945 28.2116C76.1048 28.0071 75.5636 27.8239 74.771 27.6619L71.4471 27.0099C69.538 26.6435 68.1573 25.9531 67.305 24.9389C66.4613 23.9162 66.1715 22.6122 66.4357 21.027C66.6573 19.7656 67.1772 18.696 67.9954 17.8182C68.8221 16.9318 69.9002 16.2585 71.2298 15.7983C72.5678 15.3381 74.0934 15.108 75.8065 15.108C78.5508 15.108 80.6218 15.6662 82.0195 16.7827C83.4258 17.8906 84.0437 19.4162 83.8732 21.3594ZM85.2124 35L88.4851 15.3636H94.7365L91.4638 35H85.2124ZM92.0518 13.0625C91.1655 13.0625 90.4453 12.7685 89.8913 12.1804C89.3374 11.5923 89.12 10.8892 89.2393 10.071C89.3587 9.24432 89.7763 8.54119 90.4922 7.96165C91.2081 7.3821 92.005 7.09233 92.8828 7.09233C93.7692 7.09233 94.4808 7.3821 95.0178 7.96165C95.5632 8.54119 95.7763 9.24432 95.657 10.071C95.5547 10.8892 95.1456 11.5923 94.4297 12.1804C93.7223 12.7685 92.9297 13.0625 92.0518 13.0625ZM114.811 21.3594L109.173 21.5128C109.181 21.0952 109.088 20.7287 108.892 20.4134C108.696 20.0895 108.419 19.8381 108.061 19.6591C107.703 19.4801 107.277 19.3906 106.782 19.3906C105.981 19.3906 105.261 19.5696 104.622 19.9276C103.991 20.2855 103.637 20.75 103.561 21.321C103.501 21.6278 103.586 21.8963 103.816 22.1264C104.047 22.348 104.558 22.544 105.35 22.7145L109.032 23.4304C110.924 23.8054 112.297 24.4574 113.149 25.3864C114.01 26.3068 114.316 27.5256 114.069 29.0426C113.848 30.3381 113.277 31.4588 112.356 32.4048C111.444 33.3509 110.281 34.0838 108.866 34.6037C107.46 35.1151 105.904 35.3707 104.2 35.3707C101.319 35.3707 99.146 34.7912 97.68 33.6321C96.2227 32.4645 95.5408 30.9176 95.6346 28.9915L101.72 28.8381C101.745 29.5625 101.988 30.108 102.449 30.4744C102.917 30.8324 103.552 31.0199 104.353 31.0369C105.231 31.054 105.99 30.8707 106.629 30.4872C107.268 30.1037 107.626 29.6307 107.703 29.0682C107.754 28.7017 107.63 28.4162 107.332 28.2116C107.042 28.0071 106.501 27.8239 105.708 27.6619L102.385 27.0099C100.475 26.6435 99.0948 25.9531 98.2425 24.9389C97.3988 23.9162 97.109 22.6122 97.3732 21.027C97.5948 19.7656 98.1147 18.696 98.9329 17.8182C99.7596 16.9318 100.838 16.2585 102.167 15.7983C103.505 15.3381 105.031 15.108 106.744 15.108C109.488 15.108 111.559 15.6662 112.957 16.7827C114.363 17.8906 114.981 19.4162 114.811 21.3594ZM135.518 21.3594L129.88 21.5128C129.888 21.0952 129.795 20.7287 129.599 20.4134C129.403 20.0895 129.126 19.8381 128.768 19.6591C128.41 19.4801 127.984 19.3906 127.489 19.3906C126.688 19.3906 125.968 19.5696 125.329 19.9276C124.698 20.2855 124.344 20.75 124.268 21.321C124.208 21.6278 124.293 21.8963 124.523 22.1264C124.754 22.348 125.265 22.544 126.058 22.7145L129.739 23.4304C131.631 23.8054 133.004 24.4574 133.856 25.3864C134.717 26.3068 135.023 27.5256 134.776 29.0426C134.555 30.3381 133.984 31.4588 133.063 32.4048C132.151 33.3509 130.988 34.0838 129.573 34.6037C128.167 35.1151 126.612 35.3707 124.907 35.3707C122.026 35.3707 119.853 34.7912 118.387 33.6321C116.93 32.4645 116.248 30.9176 116.342 28.9915L122.427 28.8381C122.452 29.5625 122.695 30.108 123.156 30.4744C123.624 30.8324 124.259 31.0199 125.06 31.0369C125.938 31.054 126.697 30.8707 127.336 30.4872C127.975 30.1037 128.333 29.6307 128.41 29.0682C128.461 28.7017 128.337 28.4162 128.039 28.2116C127.749 28.0071 127.208 27.8239 126.415 27.6619L123.092 27.0099C121.183 26.6435 119.802 25.9531 118.95 24.9389C118.106 23.9162 117.816 22.6122 118.08 21.027C118.302 19.7656 118.822 18.696 119.64 17.8182C120.467 16.9318 121.545 16.2585 122.874 15.7983C124.212 15.3381 125.738 15.108 127.451 15.108C130.195 15.108 132.266 15.6662 133.664 16.7827C135.07 17.8906 135.688 19.4162 135.518 21.3594ZM136.857 35L140.13 15.3636H146.381L143.108 35H136.857ZM143.696 13.0625C142.81 13.0625 142.09 12.7685 141.536 12.1804C140.982 11.5923 140.765 10.8892 140.884 10.071C141.003 9.24432 141.421 8.54119 142.137 7.96165C142.853 7.3821 143.65 7.09233 144.527 7.09233C145.414 7.09233 146.125 7.3821 146.662 7.96165C147.208 8.54119 147.421 9.24432 147.301 10.071C147.199 10.8892 146.79 11.5923 146.074 12.1804C145.367 12.7685 144.574 13.0625 143.696 13.0625ZM145.898 42.3636L150.424 15.3636H156.612L156.062 18.7259H156.254C156.594 18.1293 157.046 17.554 157.609 17C158.18 16.446 158.866 15.9943 159.667 15.6449C160.468 15.2869 161.384 15.108 162.415 15.108C163.779 15.108 164.994 15.4659 166.059 16.1818C167.124 16.8977 167.9 18.0014 168.386 19.4929C168.871 20.9844 168.923 22.8849 168.539 25.1946C168.173 27.419 167.508 29.2812 166.545 30.7812C165.59 32.2812 164.457 33.4062 163.144 34.1562C161.832 34.9062 160.455 35.2812 159.015 35.2812C158.026 35.2812 157.191 35.1193 156.509 34.7955C155.836 34.4716 155.303 34.0455 154.911 33.517C154.519 32.9886 154.246 32.4219 154.093 31.8168H153.914L152.175 42.3636H145.898ZM154.911 25.1818C154.741 26.2386 154.732 27.1591 154.886 27.9432C155.039 28.7273 155.35 29.3366 155.819 29.7713C156.296 30.1974 156.914 30.4105 157.673 30.4105C158.44 30.4105 159.121 30.1974 159.718 29.7713C160.323 29.3366 160.83 28.7273 161.239 27.9432C161.648 27.1591 161.947 26.2386 162.134 25.1818C162.296 24.125 162.3 23.2088 162.147 22.4332C162.002 21.6577 161.7 21.0568 161.239 20.6307C160.779 20.2045 160.161 19.9915 159.386 19.9915C158.627 19.9915 157.937 20.2003 157.315 20.6179C156.701 21.0355 156.19 21.6321 155.781 22.4077C155.371 23.1832 155.082 24.108 154.911 25.1818ZM168.996 42.3636L173.522 15.3636H179.709L179.159 18.7259H179.351C179.692 18.1293 180.144 17.554 180.706 17C181.277 16.446 181.963 15.9943 182.765 15.6449C183.566 15.2869 184.482 15.108 185.513 15.108C186.877 15.108 188.091 15.4659 189.157 16.1818C190.222 16.8977 190.998 18.0014 191.483 19.4929C191.969 20.9844 192.02 22.8849 191.637 25.1946C191.27 27.419 190.605 29.2812 189.642 30.7812C188.688 32.2812 187.554 33.4062 186.242 34.1562C184.929 34.9062 183.553 35.2812 182.113 35.2812C181.124 35.2812 180.289 35.1193 179.607 34.7955C178.934 34.4716 178.401 34.0455 178.009 33.517C177.617 32.9886 177.344 32.4219 177.191 31.8168H177.012L175.273 42.3636H168.996ZM178.009 25.1818C177.838 26.2386 177.83 27.1591 177.983 27.9432C178.137 28.7273 178.448 29.3366 178.917 29.7713C179.394 30.1974 180.012 30.4105 180.77 30.4105C181.537 30.4105 182.219 30.1974 182.816 29.7713C183.421 29.3366 183.928 28.7273 184.337 27.9432C184.746 27.1591 185.044 26.2386 185.232 25.1818C185.394 24.125 185.398 23.2088 185.245 22.4332C185.1 21.6577 184.797 21.0568 184.337 20.6307C183.877 20.2045 183.259 19.9915 182.483 19.9915C181.725 19.9915 181.034 20.2003 180.412 20.6179C179.799 21.0355 179.287 21.6321 178.878 22.4077C178.469 23.1832 178.179 24.108 178.009 25.1818ZM193.283 35L196.555 15.3636H202.807L199.534 35H193.283ZM200.122 13.0625C199.236 13.0625 198.516 12.7685 197.962 12.1804C197.408 11.5923 197.19 10.8892 197.31 10.071C197.429 9.24432 197.847 8.54119 198.562 7.96165C199.278 7.3821 200.075 7.09233 200.953 7.09233C201.839 7.09233 202.551 7.3821 203.088 7.96165C203.634 8.54119 203.847 9.24432 203.727 10.071C203.625 10.8892 203.216 11.5923 202.5 12.1804C201.793 12.7685 201 13.0625 200.122 13.0625Z" fill="white"/>
<rect x="218.5" y="4.5" width="33" height="34" fill="#A1E5F3" stroke="black"/>
</svg>
